<?xml version="1.0" standalone="no"?><!DOCTYPE svg PUBLIC "-//W3C//DTD SVG 1.1//EN"
  "http://www.w3.org/Graphics/SVG/1.1/DTD/svg11.dtd">
<svg t="1602658502103" class="icon" viewBox="0 0 1024 1024" version="1.1" xmlns="http://www.w3.org/2000/svg" p-id="904"
     xmlns:xlink="http://www.w3.org/1999/xlink" width="200" height="200">
  <defs>
    <style type="text/css"></style>
  </defs>
  <path
    d="M479.06 64.88h67.88c103.71-5.49 242.35 13.48 318.34 95.09 81.62 75.99 100.59 214.63 95.09 318.34v67.88c5.49 103.71-13.47 242.36-95.09 318.34-75.99 81.62-214.63 100.59-318.34 95.1h-67.88c-103.71 5.49-242.35-13.48-318.34-95.1C79.1 788.54 60.14 649.9 65.63 546.19v-67.88C60.14 374.6 79.1 235.95 160.72 159.97c75.99-81.62 214.63-100.59 318.34-95.09z"
    fill="#33DAEC" p-id="905"></path>
  <path
    d="M670.73 431.84c-5.14-5.77-9.16-14.99-9.16-25.39 0-21.91 18.34-40.94 40.67-40.94 22.34 0 41.25 19.03 41.25 40.94 0 21.35-16.04 38.65-36.66 41.54l-61.87 168.98c-48.7-6.35-97.38-9.8-132.33-9.8-55.56 0-96.23 6.91-131.75 9.8l-60.73-169.55c-20.06 0-37.82-19.04-37.82-40.96 0-22.49 18.91-41.52 41.26-41.52 22.34 0 40.67 19.03 40.67 41.52 0 6.35-1.72 12.13-9.75 24.81l59.01 67.47 24.64-119.97c-16.04-0.58-32.08-18.44-32.08-40.37 0-24.22 19.47-43.83 43.54-43.83 23.48 0 43.54 19.62 43.54 43.83 0 13.27-6.88 28.84-20.06 35.19l40.67 118.79h1.15l38.95-118.79c-10.88-8.66-17.17-21.35-17.17-35.19 0-24.22 19.47-43.83 43.54-43.83 23.48 0 43.54 19.62 43.54 43.83 0 20.77-12.04 34.61-29.79 40.37l20.04 119.97 56.7-66.9zM346.5 730c0-25.95-0.57-77.86 33.23-80.74 35.51-2.89 76.18-9.81 131.75-9.81 35.52 0 83.65 3.46 132.33 9.81 36.67 4.6 36.1 48.44 36.1 80.74H346.5z"
    fill="#FFFEF8" p-id="906"></path>
</svg>
